<?xml version="1.0" encoding="UTF-8" standalone="no"?>
<!DOCTYPE svg PUBLIC "-//W3C//DTD SVG 1.1//EN" "http://www.w3.org/Graphics/SVG/1.1/DTD/svg11.dtd">
<svg xmlns="http://www.w3.org/2000/svg" version="1.1" viewBox="0.00 0.00 65.00 55.00">
<path fill="#ffffff" d="
  M 28.34 0.00
  L 30.26 0.00
  Q 44.21 2.74 58.13 5.19
  Q 60.16 5.55 61.11 6.23
  C 63.04 7.60 62.46 10.58 60.30 11.49
  Q 50.55 15.61 41.83 19.30
  A 0.94 0.93 78.5 0 0 41.25 20.18
  L 41.55 45.77
  Q 41.56 46.55 42.23 46.16
  L 57.20 37.54
  Q 57.77 37.21 57.76 36.55
  L 57.70 18.38
  Q 57.70 15.97 59.94 15.07
  Q 60.35 14.91 60.78 14.94
  Q 63.95 15.15 63.95 18.31
  L 64.00 39.04
  A 3.06 3.05 75.1 0 1 62.47 41.69
  L 39.18 55.00
  L 37.68 55.00
  Q 35.42 53.96 35.38 50.25
  Q 35.17 33.63 35.00 17.46
  A 3.06 3.05 -11.8 0 1 36.86 14.62
  L 47.52 10.05
  Q 48.34 9.70 47.46 9.55
  Q 39.44 8.15 31.08 6.57
  Q 29.43 6.26 27.84 6.83
  Q 22.04 8.94 16.20 11.05
  Q 15.09 11.45 16.24 11.69
  L 29.40 14.52
  A 2.96 2.96 0.0 0 1 31.73 17.36
  Q 32.01 35.06 32.27 52.50
  Q 32.29 53.92 30.09 55.00
  L 28.10 55.00
  Q 15.40 50.94 2.78 47.13
  Q -0.03 46.28 0.15 43.25
  Q 0.34 40.30 0.00 37.41
  L 0.00 20.14
  Q 3.01 16.67 5.10 19.03
  Q 6.26 20.34 6.26 22.06
  Q 6.24 32.70 6.43 41.39
  A 0.57 0.56 -83.1 0 0 6.84 41.92
  L 25.40 47.52
  A 0.45 0.44 -81.4 0 0 25.97 47.09
  L 25.56 20.53
  A 0.59 0.59 0.0 0 0 25.10 19.97
  Q 14.37 17.69 3.25 15.23
  C -0.31 14.43 -0.24 10.12 2.99 9.00
  Q 15.67 4.60 28.34 0.00
  Z"
/>
<path fill="#000000" d="
  M 20.87 32.12
  Q 20.91 32.53 20.51 32.64
  A 0.35 0.35 0.0 0 1 20.07 32.32
  C 19.94 28.91 18.33 23.26 15.15 21.69
  Q 11.85 20.07 15.50 20.47
  Q 18.43 20.80 20.75 24.12
  Q 21.04 24.52 21.47 24.74
  Q 21.95 24.99 22.47 24.90
  Q 23.19 24.76 23.17 25.49
  Q 23.09 29.22 20.87 32.12
  Z"
/>
<path fill="#66b821" d="
  M 12.41 34.55
  Q 12.65 36.52 13.52 38.29
  Q 13.91 39.06 13.18 38.59
  Q 11.81 37.70 11.35 36.14
  Q 9.45 29.60 14.89 25.55
  A 0.74 0.73 46.7 0 0 14.92 24.40
  Q 13.81 23.47 12.38 23.14
  Q 11.06 22.83 12.29 22.26
  Q 14.26 21.35 15.90 23.05
  C 18.60 25.84 19.20 29.35 19.80 33.02
  Q 20.10 34.86 21.24 33.38
  Q 21.72 32.75 22.05 32.02
  Q 22.42 31.20 22.61 32.08
  C 23.28 35.23 20.73 37.77 17.65 36.72
  Q 15.22 35.89 13.30 34.10
  A 0.53 0.53 0.0 0 0 12.41 34.55
  Z
  M 16.21 33.44
  Q 16.33 33.35 16.47 33.31
  Q 17.10 33.10 16.64 32.59
  C 15.49 31.31 15.94 28.59 15.72 26.87
  Q 15.60 25.91 15.33 26.84
  Q 15.11 27.61 14.54 28.21
  Q 14.05 28.72 14.62 29.14
  Q 14.78 29.25 14.74 29.45
  Q 14.62 30.11 13.93 30.10
  Q 13.88 30.10 13.84 30.13
  Q 13.13 30.65 13.98 30.90
  Q 14.49 31.04 14.53 31.54
  Q 14.58 32.01 14.11 32.07
  Q 13.86 32.10 13.64 32.25
  Q 13.18 32.57 13.70 32.77
  Q 14.23 32.96 14.78 32.90
  A 0.65 0.65 0.0 0 1 15.45 33.81
  Q 15.12 34.56 15.73 35.07
  Q 16.31 35.56 16.30 34.80
  Q 16.29 34.26 16.11 33.78
  A 0.29 0.29 0.0 0 1 16.21 33.44
  Z"
/>
<path fill="#000000" d="
  M 10.16 33.09
  C 10.13 33.84 10.44 34.69 10.68 35.40
  Q 10.80 35.77 10.42 35.87
  Q 10.26 35.91 10.14 35.83
  Q 10.03 35.75 9.97 35.63
  Q 7.95 31.57 8.54 27.24
  C 8.70 26.10 8.41 25.11 7.79 24.17
  A 0.44 0.44 0.0 0 1 8.15 23.49
  Q 10.77 23.46 13.27 24.19
  A 0.88 0.88 0.0 0 1 13.59 25.71
  Q 10.40 28.36 10.16 33.09
  Z"
/>
<path fill="#000000" d="
  M 17.58 42.33
  L 17.54 42.71
  Q 17.33 44.45 16.43 42.95
  Q 14.63 39.92 13.33 36.20
  Q 12.78 34.61 14.10 35.65
  C 16.88 37.82 20.12 39.05 22.87 35.70
  Q 23.50 34.92 23.32 35.91
  Q 22.42 40.80 18.18 41.68
  Q 17.65 41.79 17.58 42.33
  Z"
/>
</svg>
